HIERARCHY
ROOT root
{
	OFFSET 0.000000 0.000000 0.000000
	CHANNELS 6 Xposition Yposition Zposition Zrotation Yrotation Xrotation
	JOINT lhip
	{
		OFFSET 0.058581 -0.082280 -0.017664
		CHANNELS 3 Zrotation Yrotation Xrotation
		JOINT lknee
		{
			OFFSET 0.043451 -0.386469 0.008037
			CHANNELS 3 Zrotation Yrotation Xrotation
			JOINT lankle
			{
				OFFSET -0.014790 -0.426874 -0.037428
				CHANNELS 3 Zrotation Yrotation Xrotation
				JOINT ltoe
				{
					OFFSET 0.041054 -0.060286 0.122042
					CHANNELS 3 Zrotation Yrotation Xrotation
					End Site
					{
						OFFSET 0.000000 0.000000 0.000000
					}
				}
			}
		}
	}
	JOINT rhip
	{
		OFFSET -0.060310 -0.090513 -0.013543
		CHANNELS 3 Zrotation Yrotation Xrotation
		JOINT rknee
		{
			OFFSET -0.043257 -0.383688 -0.004843
			CHANNELS 3 Zrotation Yrotation Xrotation
			JOINT rankle
			{
				OFFSET 0.019056 -0.420046 -0.034562
				CHANNELS 3 Zrotation Yrotation Xrotation
				JOINT rtoe
				{
					OFFSET -0.034840 -0.062106 0.130323
					CHANNELS 3 Zrotation Yrotation Xrotation
					End Site
					{
						OFFSET 0.000000 0.000000 0.000000
					}
				}
			}
		}
	}
	JOINT lowerback
	{
		OFFSET 0.004439 0.124404 -0.038385
		CHANNELS 3 Zrotation Yrotation Xrotation
		JOINT upperback
		{
			OFFSET 0.004488 0.137956 0.026820
			CHANNELS 3 Zrotation Yrotation Xrotation
			JOINT chest
			{
				OFFSET -0.002265 0.056032 0.002855
				CHANNELS 3 Zrotation Yrotation Xrotation
				JOINT lowerneck
				{
					OFFSET -0.013390 0.211636 -0.033468
					CHANNELS 3 Zrotation Yrotation Xrotation
					JOINT upperneck
					{
						OFFSET 0.010113 0.088937 0.050410
						CHANNELS 3 Zrotation Yrotation Xrotation
						End Site
						{
							OFFSET 0.000000 0.000000 0.000000
						}
					}
				}
				JOINT lclavicle
				{
					OFFSET 0.071702 0.114000 -0.018898
					CHANNELS 3 Zrotation Yrotation Xrotation
					JOINT lshoulder
					{
						OFFSET 0.122921 0.045205 -0.019046
						CHANNELS 3 Zrotation Yrotation Xrotation
						JOINT lelbow
						{
							OFFSET 0.255332 -0.015649 -0.022946
							CHANNELS 3 Zrotation Yrotation Xrotation
							JOINT lwrist
							{
								OFFSET 0.265709 0.012698 -0.007375
								CHANNELS 3 Zrotation Yrotation Xrotation
								End Site
								{
									OFFSET 0.000000 0.000000 0.000000
								}
							}
						}
					}
				}
				JOINT rclavicle
				{
					OFFSET -0.082954 0.112472 -0.023707
					CHANNELS 3 Zrotation Yrotation Xrotation
					JOINT rshoulder
					{
						OFFSET -0.113228 0.046853 -0.008472
						CHANNELS 3 Zrotation Yrotation Xrotation
						JOINT relbow
						{
							OFFSET -0.260127 -0.014369 -0.031269
							CHANNELS 3 Zrotation Yrotation Xrotation
							JOINT rwrist
							{
								OFFSET -0.269108 0.006794 -0.006027
								CHANNELS 3 Zrotation Yrotation Xrotation
								End Site
								{
									OFFSET 0.000000 0.000000 0.000000
								}
							}
						}
					}
				}
			}
		}
	}
}
MOTION
Frames: 6
Frame Time: 0.033333
0.343333 0.173596 0.991046 86.465429 0.170199 90.089229 7.534748 5.597386 2.996594 -4.388044 0.354518 -1.227508 0.014882 8.971908 -3.847439 0.000000 -0.000000 0.000000 -6.994150 -3.383865 -2.035534 1.544402 -0.425255 4.979132 4.992968 -4.387130 -6.310872 0.000000 -0.000000 0.000000 -4.695696 3.132064 -4.586465 1.936878 -1.617814 10.967129 -0.297751 -0.109652 -4.059862 5.211156 3.274471 3.517536 4.317941 -3.854331 0.333312 -24.116007 -0.786436 -1.032937 -57.459487 -7.203280 18.489672 2.777887 -21.426379 11.769012 -7.940644 -12.194020 11.782823 27.641289 2.494906 5.247942 55.724582 6.456853 14.939576 -7.033097 25.743429 2.317244 5.775715 8.848827 3.167746 
0.343428 0.173702 0.990837 86.494485 0.206447 89.992792 7.495806 5.492442 2.917966 -4.275363 0.442291 -0.945920 0.026516 9.164180 -3.932780 0.000000 -0.000000 0.000000 -6.986750 -3.342737 -1.874248 1.554773 -0.402212 4.938046 4.987474 -4.451844 -6.312136 0.000000 -0.000000 0.000000 -4.518874 3.153828 -4.458037 1.770653 -1.510734 10.850745 -0.306293 -0.013797 -3.958239 5.238145 3.191391 3.407170 4.326833 -3.914629 0.602524 -23.847074 -0.978617 -0.946696 -57.751621 -7.086073 18.334004 2.872752 -21.567121 11.762878 -8.153040 -12.189335 11.781401 27.166013 2.915939 5.613447 56.365626 6.239954 15.120652 -7.503152 25.775606 1.686491 5.481469 8.952584 2.783419 
0.343584 0.173599 0.990729 86.442775 0.275320 89.904902 7.579922 5.452496 2.866566 -4.267786 0.561107 -0.686464 0.035256 9.219797 -3.970517 0.000000 -0.000000 0.000000 -7.011051 -3.429463 -1.619503 1.680142 -0.361680 4.643233 5.050489 -4.324154 -6.149764 0.000000 -0.000000 0.000000 -4.450057 3.288348 -4.496499 1.795865 -1.451457 10.777488 -0.286824 -0.088466 -3.722021 5.253976 3.269855 3.230696 4.310260 -3.911823 0.815631 -23.918812 -0.812848 -0.932532 -57.742407 -7.236607 18.179009 2.751954 -21.630707 12.155415 -8.264493 -12.191602 11.597882 27.313811 2.422981 5.393170 56.105201 6.570202 14.990285 -7.350292 25.720395 2.316835 5.824121 8.630950 2.916060 
0.343727 0.173517 0.990944 86.136668 0.319586 89.778268 7.660103 5.530125 3.035649 -4.318670 0.781467 -0.622286 -0.083596 9.260698 -4.046690 0.000000 -0.000000 0.000000 -7.128566 -3.472957 -1.270650 1.865445 -0.286830 4.189112 5.317357 -4.011421 -5.954313 0.000000 -0.000000 0.000000 -4.382402 3.461329 -4.581033 1.797166 -1.255145 10.836533 -0.266978 -0.017213 -3.670399 5.304185 3.335999 3.096541 4.277571 -4.005469 1.054552 -23.955093 -0.726531 -0.837749 -57.819547 -7.255818 17.989735 2.624917 -21.644431 12.336580 -8.185155 -12.180253 11.439256 27.295142 2.390569 5.512867 56.014144 6.751377 14.901787 -7.331760 25.592183 2.308229 5.629871 8.598312 2.938217 
0.343707 0.173516 0.990979 86.036551 0.349533 89.787794 7.689530 5.537581 3.056097 -4.330595 0.867211 -0.652104 -0.086072 9.269353 -4.047950 0.000000 -0.000000 0.000000 -7.143611 -3.462788 -1.195422 1.918865 -0.257248 4.012613 5.390007 -3.916786 -5.898093 0.000000 -0.000000 0.000000 -4.347456 3.506026 -4.653854 1.799543 -1.211675 10.790304 -0.253086 -0.001156 -3.612699 5.318140 3.347287 3.113343 4.269843 -4.011434 1.071041 -23.963768 -0.673130 -0.831726 -57.888390 -7.248606 17.961194 2.656220 -21.584327 12.400750 -8.258679 -12.263713 11.399034 27.288942 2.364991 5.520275 55.991721 6.809796 14.884582 -7.353195 25.571729 2.336321 5.648621 8.608447 2.885589 
0.343859 0.173456 0.991004 85.869253 0.386764 89.817948 7.734648 5.575655 3.124521 -4.355431 0.976820 -0.773533 -0.125367 9.304252 -4.027716 0.000000 -0.000000 0.000000 -7.161721 -3.416829 -1.054061 1.972477 -0.190726 3.706232 5.502948 -3.761470 -5.803214 0.000000 -0.000000 0.000000 -4.332324 3.543058 -4.812378 1.812809 -1.177777 10.757291 -0.232264 0.024622 -3.576160 5.346052 3.296756 3.154491 4.251401 -3.998534 1.032874 -24.010620 -0.554297 -0.817778 -57.926789 -7.128835 17.912357 2.730741 -21.571936 12.453889 -8.383164 -12.261861 11.435302 27.296046 2.318527 5.502330 55.945306 6.868117 14.843462 -7.364504 25.589679 2.405433 5.722567 8.685180 2.892694 
